<svg viewBox="0 0 24 24" xmlns="http://www.w3.org/2000/svg">
    <path d="M12 8 C 8.640625  8         7.625     8.375     7.625    8.375
                   C 6.917969  8.609375  5.953125  8.945313  5.5625   9.6875
                   C 5.367188 10.0625    4.613281 12.152344  3.96875 14       L 3.15625 14
                   C 2.789063 14         2.40625  14.289063  2.28125 14.65625 L 2.03125 15.34375
                   C 1.90625  15.710938  2.101563 16         2.46875 16       L 3.28125 16
                   C 3.257813 16.0625    3.125    16.46875   3.125   16.46875
                   C 3.0625   16.578125  3        17.085938  3       17.21875 L 3       23.28125
                   C 3        23.671875  3.328125 24         3.71875 24       L 6.28125 24
                   C 6.671875 24         7        23.671875  7       23.28125 L 7       22       L17 22 L17 23.28125
                   C17        23.671875 17.328125 24        17.71875 24       L20.28125 24
                   C20.671875 24        21        23.671875 21       23.28125 L21       17.21875
                   C21        17.085938 20.9375   16.578125 20.875   16.46875
                   C20.875    16.46875  20.742188 16.0625   20.71875 16       L21.53125 16
                   C21.898438 16        22.09375  15.710938 21.96875 15.34375 L21.71875 14.65625
                   C21.59375  14.289063 21.210938 14        20.84375 14       L20.03125 14
                   C19.394531 12.207031 18.640625 10.179688 18.40625  9.65625
                   C18.0625    8.890625 16.976563  8.542969 16.375    8.375
                   C16.375     8.375    15.359375  8        12        8 Z

             M12        9.46875 C17.082031  9.46875  17.207031 10.363281 17.21875 10.375
                                C17.375    10.84375  18.003906 12.265625 18.5     14.28125
                                C18.5      14.28125  16.34375  15        12       15
                                C 7.65625  15         5.5      14.28125   5.5     14.28125
                                C 6.027344 12.09375   6.59375  10.84375   6.71875 10.5
                                C 6.820313 10.25      6.917969  9.46875  12        9.46875 Z

             M 4.53125 16.84375 C 4.632813 16.832031  4.734375 16.84375   4.84375 16.84375
                                C 5.277344 16.84375   6.152344 17.214844  6.71875 17.46875
                                C 7.335938 17.746094  8.03125  17.976563  8.03125 18.4375
                                C 8.03125  18.863281  7.808594 19.0625    7       19.0625  L5.90625 19.0625
                                C 4.949219 19.0625    4        18.921875  4       18.3125  L4       17.59375
                                C 4        17.058594  4.226563 16.882813  4.53125 16.84375 Z

             M19.15625 16.84375 C19.601563 16.84375  20        16.882813 20       17.59375 L20 18.3125
                                C20        18.921875 19.050781 19.0625   18.09375 19.0625  L17 19.0625
                                C16.195313 19.0625   15.96875  18.863281 15.96875 18.4375
                                C15.96875  17.976563 16.664063 17.746094 17.28125 17.46875
                                C17.847656 17.214844 18.722656 16.84375  19.15625 16.84375 Z"/>
</svg>